<svg width="32" height="32" xmlns="http://www.w3.org/2000/svg">
 <g>
  <title>background</title>
  <rect fill="none" id="canvas_background" height="39.578097" width="39.578097" y="-1" x="-1"/>
 </g>

 <g>
  <title>Layer 1</title>
  <path stroke="null" id="mail" fill="#33658a" d="m27.92663,3.654561l-24,0c-2.209,0 -4,2.078555 -4,4.639623l0,15.078783c0,2.562235 1.791,4.639623 4,4.639623l24,0c2.209,0 4,-2.077387 4,-4.639623l0,-15.078783c0,-2.561067 -1.791,-4.639623 -4,-4.639623zm-26,6.089504l6.999,6.089514l-6.999,6.089504l0,-12.179018zm28,13.628901c0,1.280538 -0.898,2.319811 -2,2.319811l-24,0c-1.103,0 -2,-1.039272 -2,-2.319811l7.832,-6.814451l4.368,3.801012c0.533,0.461647 1.166,0.695944 1.8,0.695944c0.633,0 1.266,-0.23314 1.799,-0.695944l4.369,-3.801012l7.832,6.814451l0,0zm0,-1.449882l-7,-6.089504l7,-6.089514l0,12.179018zm-12.801,-2.49148c-0.349,0.303893 -0.763,0.463962 -1.199,0.463962c-0.436,0 -0.851,-0.161227 -1.2,-0.463962l-4.135,-3.598034l-0.833,-0.724935l-7.832,-6.813292l0,-0.001158c0,-1.27937 0.897,-2.319811 2,-2.319811l24,0c1.102,0 2,1.04043 2,2.319811l-12.801,11.13742z"/>
 </g>
</svg>