<svg width="64.002" height="63.994" xmlns="http://www.w3.org/2000/svg">

 <g>
  <title>background</title>
  <rect fill="none" id="canvas_background" height="402" width="582" y="-1" x="-1"/>
 </g>
 <g>
  <title>Layer 1</title>
  <path stroke="null" id="svg_2" fill="#33658a" d="m32.001,0c-17.603972,0 -31.876008,14.327 -31.876008,31.997c0,17.673 14.272036,31.997 31.876008,31.997c17.602975,0 31.876008,-14.324 31.876008,-31.997c0,-17.67 -14.272037,-31.997 -31.876008,-31.997zm9.304489,58.248874c-0.183281,-2.504 -0.762982,-7.478874 -0.773939,-8.735874c-0.080684,-0.964 -0.183282,-3.414 -2.502189,-4.98c9.205902,-0.774 13.58772,-5.883 13.90149,-12.633c0.262969,-3.844 -1.259063,-7.223 -3.963459,-9.95c0.138457,-2.917 -0.087656,-6.375 -0.273926,-7.896c-2.07586,-0.601 -6.916877,1.966 -8.270569,3.063c-2.852814,-1.111 -9.836429,-1.501 -14.080786,0c-3.009201,-2.122 -6.433772,-3.436 -8.300453,-3.069c-1.722246,3.833 -0.61459,7.459 -0.27791,7.89c-2.220294,2.035 -5.316154,4.543 -4.475451,9.79c1.348712,7.696 6.743557,11.849 15.430494,12.864c-1.852735,0.381 -2.165508,1.768 -2.321895,2.369c-5.833127,2.415 -7.499593,-1.492 -8.238695,-2.509c-2.448399,-3.043 -4.645783,-2.161 -4.782247,-2.111c-0.131485,0.048 -0.230098,0.239 -0.217149,0.332c0.12252,0.655 1.457286,1.322 1.521036,1.376c1.805918,1.352 2.475294,3.796 2.887677,4.49c2.591836,4.277 8.61721,2.504 8.673987,2.539c0.004981,0.372 -0.04084,5.145883 -0.077695,7.596883c-10.97895,-3.013 -20.929801,-15.32084 -20.929801,-27.30284c0,-14.358 13.338577,-27.372903 27.642489,-27.372903c14.303911,0 27.641024,13.514869 27.641024,27.872869c0,11.205 -8.314842,22.723865 -18.212033,26.376865z"/>
 </g>
</svg>