<svg width="112.196" height="112.196" xmlns="http://www.w3.org/2000/svg">
 <g>
  <title>background</title>
  <rect fill="none" id="canvas_background" height="133.753124" width="133.753124" y="-1" x="-1"/>
 </g>

 <g>
  <title>Layer 1</title>
  <circle fill="#f26419" r="56.098" id="XMLID_115_" cy="56.097" cx="56.098"/>
  <path id="svg_2" fill="#d2e4f0" d="m79.124,22.506l-46.05,0c-5.83,0 -10.56,4.73 -10.56,10.57l0,46.05c0,5.83 4.73,10.56 10.56,10.56l46.05,0c5.83,0 10.56,-4.73 10.56,-10.56l0,-46.05c0,-5.84 -4.73,-10.57 -10.56,-10.57zm-7.141,7.77l8.44,-0.02l0.02,0c0.81,-0.01 1.47,0.65 1.47,1.45l0,8.47c0,0.81 -0.65,1.46 -1.46,1.46l-8.43,0.03c-0.81,0 -1.46,-0.65 -1.46,-1.45l-0.03,-8.47c-0.01,-0.81 0.64,-1.46 1.45,-1.47zm-26.179,20.05c0.22,-0.38 0.45,-0.76 0.71,-1.12c2.15,-2.98 5.64,-4.93 9.58,-4.93c3.95,0 7.44,1.95 9.59,4.93c0.26,0.36 0.49,0.74 0.71,1.13c0.96,1.7 1.53,3.67 1.53,5.76c0,6.52 -5.31,11.82 -11.83,11.82c-6.52,0 -11.82,-5.3 -11.82,-11.82c-0.001,-2.09 0.56,-4.06 1.53,-5.77zm37.34,26.38c0,3.55 -2.89,6.44 -6.44,6.44l-41.21,0c-3.55,0 -6.44,-2.89 -6.44,-6.44l0,-27.5l10.03,0c-0.25,0.61 -0.47,1.25 -0.65,1.89c-0.46,1.59 -0.7,3.27 -0.7,5c0,10.13 8.24,18.37 18.36,18.37c10.13,0 18.37,-8.24 18.37,-18.37c0,-1.73 -0.25,-3.41 -0.7,-5c-0.19,-0.64 -0.4,-1.28 -0.65,-1.89l10.03,0l0,27.5z" fill-opacity="0.9"/>
 </g>
</svg>