<svg width="512" height="512" xmlns="http://www.w3.org/2000/svg">

 <g>
  <title>background</title>
  <rect fill="none" id="canvas_background" height="402" width="582" y="-1" x="-1"/>
 </g>
 <g>
  <title>Layer 1</title>
  <path id="svg_1" fill="#33658a" d="m374.5,369.5l0,-88.875c0,-45.875 -24.888,-67.158 -57.17,-67.158c-26.022,0 -37.83,14.666 -44.83,24.859l0,-20.826l-49,0l0,152l49,0l0,-86.64c0,-4.471 0.608,-8.853 1.95,-12.072c3.577,-8.943 12.066,-18.153 25.659,-18.153c17.795,0 25.391,13.682 25.391,33.713l0,83.152l49,0z"/>
  <path id="svg_2" fill="#33658a" d="m171.684,141.034c-16.097,0 -26.559,11.299 -26.559,26.233c0,14.666 10.194,26.233 25.933,26.233l0.357,0c16.365,0 26.559,-11.567 26.559,-26.233c-0.357,-15.023 -10.193,-26.233 -26.29,-26.233z"/>
  <rect id="svg_3" y="217.5" x="145.5" width="49" height="152" fill="#33658a"/>
  <path id="svg_4" fill="#33658a" d="m254.5,16.5c-131.996,0 -239,107.004 -239,239s107.004,239 239,239s239,-107.004 239,-239s-107.004,-239 -239,-239zm144.300247,383.300247c-42.308,42.308 -82.118622,63.259374 -141.951622,63.259374c-59.833,0 -101.992247,-18.602748 -144.300247,-60.910748c-42.308,-42.308 -64.433686,-91.513124 -64.433686,-151.346124c0,-59.833 24.474311,-105.515185 63.259373,-145.47456c38.785062,-39.959374 85.64156,-56.213498 145.47456,-56.213498c59.833,0 103.16656,18.602749 145.47456,60.910749c42.308,42.308 58.562124,84.467247 58.562124,144.300247c0,59.833 -19.777062,103.16656 -62.085062,145.47456z"/>
  <path id="svg_11" d="m66.348491,115.596232" opacity="0.5" fill-opacity="null" stroke-opacity="null" stroke-width="null" stroke="null" fill="#33658a"/>
  <path id="svg_12" d="m89.834746,102.678792" opacity="0.5" fill-opacity="null" stroke-opacity="null" stroke-width="null" stroke="null" fill="#33658a"/>
  <path d="m99.229248,109.72467c1.174316,0 4.473549,-0.497452 22.311943,-8.220192c23.213432,-10.049751 52.613701,-19.676178 64.587196,-22.311943c16.218964,-3.570328 25.834885,-2.348625 36.403702,-2.348625c5.871567,0 11.743118,0 14.091751,0c1.174316,0 2.382401,-0.279648 3.522934,0c59.175858,14.509148 102.165207,55.192696 115.082657,63.412895l8.220184,3.522934" id="svg_14" fill-opacity="null" stroke-opacity="null" stroke-width="null" stroke="null" fill="none"/>
  <path d="m251.889908,31.045713c0,2.348627 0,7.045877 0,15.266066c0,1.174313 0,4.69725 0,5.871563c0,1.174313 1.174316,3.522942 1.174316,4.697254c0,1.174313 0,2.348625 0,3.522938c0,2.348625 0,3.522938 0,4.69725c0,1.174309 0,2.348625 0,3.522942c0,1.174309 -0.449387,2.438011 0,3.522934c0.635529,1.534309 1.174301,5.871567 1.174301,8.220192c0,2.348625 0,3.522934 0,4.69725l0,1.174309" id="svg_16" fill-opacity="null" stroke-opacity="null" stroke-width="null" stroke="null" fill="none"/>
 </g>
</svg>