<svg width="512" height="512" xmlns="http://www.w3.org/2000/svg">
 <g>
  <title>background</title>
  <rect x="-1" y="-1" width="36.477772" height="36.477772" id="canvas_background" fill="none"/>
 </g>

 <g>
  <title>Layer 1</title>
  <path d="m374.5,369.5l0,-88.875c0,-45.875 -24.888,-67.158 -57.17,-67.158c-26.022,0 -37.83,14.666 -44.83,24.859l0,-20.826l-49,0l0,152l49,0l0,-86.64c0,-4.471 0.608,-8.853 1.95,-12.072c3.577,-8.943 12.066,-18.153 25.659,-18.153c17.795,0 25.391,13.682 25.391,33.713l0,83.152l49,0z" fill="#33658a" id="svg_1"/>
  <path d="m171.684,141.034c-16.097,0 -26.559,11.299 -26.559,26.233c0,14.666 10.194,26.233 25.933,26.233l0.357,0c16.365,0 26.559,-11.567 26.559,-26.233c-0.357,-15.023 -10.193,-26.233 -26.29,-26.233z" fill="#33658a" id="svg_2"/>
  <rect fill="#33658a" height="152" width="49" x="145.5" y="217.5" id="svg_3"/>
  <path stroke="null" d="m256.848631,2.408242c-140.42724,0 -254.266117,113.575987 -254.266117,253.678937s113.838877,253.678937 254.266117,253.678937s254.266117,-113.575987 254.266117,-253.678937s-113.838877,-253.678937 -254.266117,-253.678937zm153.517421,406.841838c-45.010422,44.906479 -87.363946,67.144647 -151.018777,67.144647c-63.654831,0 -108.506999,-19.745294 -153.517421,-64.651773c-45.010422,-44.906479 -68.549386,-97.13369 -68.549386,-160.641522c0,-63.507832 26.037607,-111.995732 67.300063,-154.409338c41.262457,-42.413605 91.111912,-59.666027 154.766743,-59.666027c63.654831,0 109.756321,19.745295 154.766743,64.651774c45.010422,44.906479 62.302778,89.655069 62.302778,153.162901c0,63.507832 -21.040321,109.502859 -66.050743,154.409338z" fill="#33658a" id="svg_4"/>
  <path fill="#33658a" stroke="null" stroke-width="null" stroke-opacity="null" fill-opacity="null" opacity="0.5" d="m66.348491,115.596232" id="svg_11"/>
  <path fill="#33658a" stroke="null" stroke-width="null" stroke-opacity="null" fill-opacity="null" opacity="0.5" d="m89.834746,102.678792" id="svg_12"/>
  <path fill="none" stroke="null" stroke-width="null" stroke-opacity="null" fill-opacity="null" id="svg_14" d="m99.229248,109.72467c1.174316,0 4.473549,-0.497452 22.311943,-8.220192c23.213432,-10.049751 52.613701,-19.676178 64.587196,-22.311943c16.218964,-3.570328 25.834885,-2.348625 36.403702,-2.348625c5.871567,0 11.743118,0 14.091751,0c1.174316,0 2.382401,-0.279648 3.522934,0c59.175858,14.509148 102.165207,55.192696 115.082657,63.412895l8.220184,3.522934"/>
  <path fill="none" stroke="null" stroke-width="null" stroke-opacity="null" fill-opacity="null" id="svg_16" d="m251.889908,31.045713c0,2.348627 0,7.045877 0,15.266066c0,1.174313 0,4.69725 0,5.871563c0,1.174313 1.174316,3.522942 1.174316,4.697254c0,1.174313 0,2.348625 0,3.522938c0,2.348625 0,3.522938 0,4.69725c0,1.174309 0,2.348625 0,3.522942c0,1.174309 -0.449387,2.438011 0,3.522934c0.635529,1.534309 1.174301,5.871567 1.174301,8.220192c0,2.348625 0,3.522934 0,4.69725l0,1.174309"/>
 </g>
</svg>