<svg width="32" height="32" xmlns="http://www.w3.org/2000/svg">

 <g>
  <title>background</title>
  <rect fill="none" id="canvas_background" height="402" width="582" y="-1" x="-1"/>
 </g>
 <g>
  <title>Layer 1</title>
  <path fill="#ffffff" id="svg_2" d="m30.398,19.113l0,10.646l-6.172,0l0,-9.935c0,-2.496 -0.893,-4.199 -3.127,-4.199c-1.707,0 -2.721,1.148 -3.168,2.259c-0.162,0.397 -0.205,0.948 -0.205,1.505l0,10.37l-6.174,0c0,0 0.082,-16.826 0,-18.568l6.174,0l0,2.633c-0.012,0.02 -0.028,0.041 -0.041,0.06l0.041,0l0,-0.06c0.82,-1.265 2.285,-3.068 5.564,-3.068c4.064,-0.001 7.108,2.654 7.108,8.357l0,0zm-25.302,-16.873c-2.113,0 -3.494,1.387 -3.494,3.209c0,1.78 1.342,3.209 3.412,3.209l0.041,0c2.151,0 3.491,-1.428 3.491,-3.209c-0.041,-1.822 -1.34,-3.209 -3.452,-3.209l0.002,0zm-3.127,27.52l6.172,0l0,-18.568l-6.172,0l0,18.568z"/>
 </g>
</svg>