<svg width="32" height="32" xmlns="http://www.w3.org/2000/svg">

 <title/>
 <g>
  <title>background</title>
  <rect fill="none" id="canvas_background" height="402" width="582" y="-1" x="-1"/>
 </g>
 <g>
  <title>Layer 1</title>
  <path stroke="null" fill="#33658a" id="svg_1" d="m26.629888,9.63a0.272141,0.25 0 0 1 0,-0.07a4.659059,4.28 0 0 0 -0.859966,-1.15l-5.747624,-5.24a4.35426,4 0 0 0 -3.080639,-1.17l-10.624395,0a3.265695,3 0 0 0 -3.265695,3l0,22a3.265695,3 0 0 0 3.265695,3l17.417042,0a3.265695,3 0 0 0 3.265695,-3l0,-15.76a4.35426,4 0 0 0 -0.370112,-1.61zm-7.249844,-4.22l3.907949,3.59l-2.819384,0a1.088565,1 0 0 1 -1.088565,-1l0,-2.59zm5.442826,21.59a1.088565,1 0 0 1 -1.088565,1l-17.417042,0a1.088565,1 0 0 1 -1.088565,-1l0,-22a1.088565,1 0 0 1 1.088565,-1l10.624395,0l0.261256,0l0,4a3.265695,3 0 0 0 3.265695,3l4.35426,0a2.111816,1.94 0 0 1 0,0.24l0,15.76z" class="cls-1"/>
  <path fill="#33658a" id="svg_2" d="m21.13403,13l-3,0a1,1 0 0 0 0,2l3,0a1,1 0 0 0 0,-2z" class="cls-1"/>
  <path stroke="null" fill="#33658a" id="svg_3" d="m21.865981,18l-13.60823,0a1.134019,1 0 0 0 0,2l13.60823,0a1.134019,1 0 0 0 0,-2z" class="cls-1"/>
  <path stroke="null" fill="#33658a" id="svg_4" d="m21.871135,22l-13.546375,0a1.128865,1 0 0 0 0,2l13.546375,0a1.128865,1 0 0 0 0,-2z" class="cls-1"/>
  <path fill="#33658a" id="svg_5" d="m8.701045,15.927836a1,1 0 0 0 1,-1a2.11,2.11 0 0 1 0.86,-0.64a2,2 0 0 0 0.84,-0.41a1.63,1.63 0 0 0 0.31,0a1.73,1.73 0 0 0 0.32,0a2,2 0 0 0 0.85,0.41a2.24,2.24 0 0 1 0.83,0.62a1,1 0 0 0 1.99,0.02c0,-1.24 -1.3,-2.05 -1.93,-2.34a4.24,4.24 0 0 0 0.43,-2.16a2.6,2.6 0 0 0 -2.5,-2.5a2.6,2.6 0 0 0 -2.5,2.5a4.24,4.24 0 0 0 0.43,2.16c-0.63,0.34 -1.93,1.1 -1.93,2.34a1,1 0 0 0 1,1zm3,-6a0.64,0.64 0 0 1 0.5,0.5c0,0.75 0,1.1 -0.46,1.54l-0.04,0c-0.44,-0.44 -0.46,-0.79 -0.46,-1.54a0.64,0.64 0 0 1 0.46,-0.5z" class="cls-1"/>
 </g>
</svg>