<svg width="32" height="32" xmlns="http://www.w3.org/2000/svg">
 <title/>

 <g>
  <title>background</title>
  <rect fill="none" id="canvas_background" height="402" width="582" y="-1" x="-1"/>
 </g>
 <g>
  <title>Layer 1</title>
  <path stroke="null" fill="#f26419" id="svg_1" d="m27.855036,31.91486l-23.798684,0a3.820942,3.84048 0 0 1 -2.800512,-1.139608a3.798265,3.817688 0 0 1 -1.133811,-2.814833l0,-23.829211a3.809604,3.829084 0 0 1 1.099796,-2.826229a3.820942,3.84048 0 0 1 2.834526,-1.139608l23.810022,0a3.83228,3.851876 0 0 1 2.834526,1.139608a3.809604,3.829084 0 0 1 1.133811,2.803437l0,23.829211a3.798265,3.817688 0 0 1 -1.133811,2.814833a3.83228,3.851876 0 0 1 -2.845865,1.162401zm-6.099901,-7.646772a0.89571,0.900291 0 0 0 0.963739,-0.752142l3.140655,-15.099811a0.623596,0.626785 0 0 0 -0.204086,-0.52422a0.702963,0.706557 0 0 0 -0.464862,-0.193733q-0.090705,0 -18.741889,6.963007a0.668948,0.672369 0 0 0 -0.464862,0.672369a0.646272,0.649577 0 0 0 0.487539,0.592596l4.535242,1.413114l1.825435,5.504308a0.702963,0.706557 0 0 0 0.714301,0.490032a0.634934,0.638181 0 0 0 0.453524,-0.193733l2.57375,-2.461554l4.637285,3.418825a1.02043,1.025648 0 0 0 0.544229,0.170941zm-8.288155,-2.780644l-1.371911,-4.558433q9.886828,-6.324826 9.954857,-6.324826c0.170072,0 0.260776,0 0.260776,0.182337a0.204086,0.20513 0 0 1 0,0.068377s-2.845865,2.621099 -8.526256,7.749337l-0.317467,2.883209z"/>
 </g>
</svg>