<svg width="32" height="32" xmlns="http://www.w3.org/2000/svg">
 <title/>

 <g>
  <title>background</title>
  <rect fill="none" id="canvas_background" height="402" width="582" y="-1" x="-1"/>
 </g>
 <g>
  <title>Layer 1</title>
  <path fill="#33658a" id="svg_1" d="m24,28a1,1 0 0 1 -0.62,-0.22l-6.54,-5.23a1.83,1.83 0 0 1 -0.13,0.16l-4,4a1,1 0 0 1 -1.65,-0.36l-2.86,-7.63l-5.65,-2.83a1,1 0 0 1 0.09,-1.82l26,-10a1,1 0 0 1 1,0.17a1,1 0 0 1 0.33,1l-5,22a1,1 0 0 1 -0.65,0.72a1,1 0 0 1 -0.32,0.04zm-8.43,-9l7.81,6.25l4.23,-18.64l-22.14,8.51l4,2a1,1 0 0 1 0.49,0.54l2.45,6.54l2.89,-2.88l-1.9,-1.53a1,1 0 0 1 -0.4,-0.79a1,1 0 0 1 0.35,-0.78l7,-6a1,1 0 1 1 1.3,1.52l-6.08,5.26z"/>
 </g>
</svg>