<svg width="512" height="512" xmlns="http://www.w3.org/2000/svg">
 <g>
  <title>background</title>
  <rect fill="none" id="canvas_background" height="133.519733" width="133.519733" y="-1" x="-1"/>
 </g>

 <g>
  <title>Layer 1</title>
  <circle fill="#f26419" id="svg_2" r="256" cy="256" cx="256" class="st0"/>
  <path fill="#d2e4f0" id="svg_4" d="m380.6,147.3l-45.7,230.5c0,0 -6.4,16 -24,8.3l-105.5,-80.9l-38.4,-18.5l-64.6,-21.7c0,0 -9.9,-3.5 -10.9,-11.2c-1,-7.7 11.2,-11.8 11.2,-11.8l256.8,-100.7c0,-0.1 21.1,-9.4 21.1,6z" class="st1" fill-opacity="0.9"/>
  <path fill="#7096ad" id="svg_5" d="m197.2,376.37435c0,0 -3.1,-0.3 -6.9,-12.4c-3.8,-12.1 -23.3,-76.1 -23.3,-76.1l155.1,-98.5c0,0 9,-5.4 8.6,0c0,0 1.6,1 -3.2,5.4c-4.8,4.5 -121.8,109.7 -121.8,109.7" class="st2"/>
  <path fill="#7096ad" id="svg_6" d="m245.8,336.2l-41.7,38.1c0,0 -3.3,2.5 -6.8,0.9l8,-70.7" class="st3"/>
 </g>
</svg>