<svg width="32" height="32" xmlns="http://www.w3.org/2000/svg">
 <title/>

 <g>
  <title>background</title>
  <rect fill="none" id="canvas_background" height="402" width="582" y="-1" x="-1"/>
 </g>
 <g>
  <title>Layer 1</title>
  <path stroke="null" fill="#f48923" id="svg_1" d="m27.790854,31.694695l-23.743612,0a3.8121,3.796095 0 0 1 -2.794032,-1.126438a3.789476,3.773567 0 0 1 -1.131187,-2.782301l0,-23.553815a3.800788,3.784831 0 0 1 1.097251,-2.793566a3.8121,3.796095 0 0 1 2.827967,-1.126438l23.754924,0a3.823412,3.80736 0 0 1 2.827967,1.126438a3.800788,3.784831 0 0 1 1.131187,2.771037l0,23.553815a3.789476,3.773567 0 0 1 -1.131187,2.782301a3.823412,3.80736 0 0 1 -2.839279,1.148967zm-6.085785,-7.558398a0.893638,0.889886 0 0 0 0.961509,-0.743449l3.133388,-14.925301a0.622153,0.619541 0 0 0 -0.203614,-0.518161a0.701336,0.698391 0 0 0 -0.463787,-0.191494q-0.090495,0 -18.698519,6.882535a0.6674,0.664598 0 0 0 -0.463787,0.664598a0.644777,0.64207 0 0 0 0.48641,0.585748l4.524747,1.396783l1.821211,5.440695a0.701336,0.698391 0 0 0 0.712648,0.484368a0.633465,0.630805 0 0 0 0.452475,-0.191494l2.567794,-2.433106l4.626554,3.379313a1.018068,1.013794 0 0 0 0.54297,0.168966zm-8.268976,-2.748508l-1.368736,-4.505751q9.863949,-6.25173 9.931821,-6.25173c0.169678,0 0.260173,0 0.260173,0.18023a0.203614,0.202759 0 0 1 0,0.067586s-2.839279,2.590807 -8.506525,7.659777l-0.316732,2.849888z"/>
 </g>
</svg>