<svg width="514" height="509.418" xmlns="http://www.w3.org/2000/svg">

 <g>
  <title>background</title>
  <rect fill="none" id="canvas_background" height="511.418" width="516" y="-1" x="-1"/>
 </g>
 <g>
  <title>Layer 1</title>
  <path stroke="null" id="svg_2" fill="#33658A" class="active-path" d="m432.611863,79.547187c-97.576426,-96.660688 -255.527412,-96.676138 -353.119434,0c-97.57935,96.660688 -97.593972,253.124274 0,349.799446c97.576426,96.660688 255.527412,96.675172 353.119434,0c97.57935,-96.660688 97.592997,-253.124274 0,-349.799446zm-10.436096,314.540726c-11.66628,-10.334086 -24.145535,-19.479491 -37.299344,-27.360898c8.694147,-29.749846 13.844935,-62.487327 15.062447,-96.517776l73.41042,0c-3.319158,45.869939 -21.111015,88.899019 -51.173523,123.878674zm-383.42174,-123.878674l73.41042,0c1.217512,34.030449 6.3683,66.767929 15.062447,96.517776c-13.153809,7.881406 -25.633064,17.026812 -37.299344,27.360898c-30.062507,-34.979655 -47.85339,-78.008734 -51.173523,-123.878674zm51.174497,-155.403333c11.66628,10.334086 24.145535,19.479491 37.299344,27.360898c-8.694147,29.749846 -13.844935,62.487327 -15.062447,96.517776l-73.411395,0c3.320133,-45.868974 21.111015,-88.898053 51.174497,-123.878674zm150.212133,30.618906c-25.950845,-1.838544 -50.972716,-8.170127 -74.169781,-18.61526c13.491086,-34.4138 38.361865,-75.68931 74.169781,-85.918144l0,104.533404zm0,31.583563l0,61.67717l-96.138611,0c1.101512,-28.787121 5.219023,-56.429981 12.066919,-81.722516c26.361232,11.415583 54.712008,18.232874 84.071692,20.045346zm0,93.200864l0,61.67717c-29.359684,1.812472 -57.710461,8.629763 -84.071692,20.045346c-6.847896,-25.292536 -10.965407,-52.935395 -12.066919,-81.722516l96.138611,0zm0,93.260733l0,104.532438c-35.805967,-10.228833 -60.676745,-51.499515 -74.169781,-85.917178c23.197065,-10.445133 48.218936,-16.776716 74.169781,-18.61526zm31.822977,0c25.950845,1.838544 50.972716,8.170127 74.169781,18.61526c-13.492061,34.414766 -38.361865,75.688345 -74.169781,85.917178l0,-104.532438zm0,-31.583563l0,-61.67717l96.138611,0c-1.101512,28.787121 -5.219023,56.429981 -12.066919,81.722516c-26.361232,-11.415583 -54.712008,-18.232874 -84.071692,-20.045346zm0,-93.200864l0,-61.67717c29.359684,-1.812472 57.710461,-8.629763 84.071692,-20.045346c6.847896,25.292536 10.965407,52.935395 12.066919,81.722516l-96.138611,0zm0,-93.260733l0,-104.532438c35.807916,10.228833 60.678695,51.504343 74.169781,85.918144c-23.197065,10.444167 -48.218936,16.77575 -74.169781,18.614294zm71.471564,-88.795697c20.368226,8.835441 39.370772,20.815912 56.405218,35.680696c-8.108299,7.081871 -16.664026,13.503257 -25.597971,19.245811c-7.933811,-19.459213 -18.068698,-38.369954 -30.807246,-54.926507zm-205.574326,54.926507c-8.933945,-5.742554 -17.488698,-12.16394 -25.597971,-19.245811c17.034446,-14.864784 36.036992,-26.845256 56.405218,-35.680696c-12.738549,16.558485 -22.873435,35.469225 -30.807246,54.926507zm0.000975,285.783539c7.932837,19.458248 18.069672,38.369954 30.807246,54.926507c-20.368226,-8.835441 -39.370772,-20.815912 -56.405218,-35.680696c8.108299,-7.081871 16.664026,-13.503257 25.597971,-19.245811zm236.380597,0c8.933945,5.742554 17.489673,12.16394 25.597971,19.244845c-17.034446,14.864784 -36.036992,26.845256 -56.405218,35.680696c12.737574,-16.554623 22.873435,-35.466328 30.807246,-54.925542zm25.6974,-158.653617c-1.217512,-34.030449 -6.3683,-66.768895 -15.062447,-96.517776c13.153809,-7.881406 25.632089,-17.026812 37.299344,-27.360898c30.062507,34.979655 47.85339,78.008734 51.173523,123.878674l-73.41042,0z"/>
 </g>
</svg>